<svg xmlns="http://www.w3.org/2000/svg" xmlns:xlink="http://www.w3.org/1999/xlink" width="1920" zoomAndPan="magnify" viewBox="0 0 1440 809.999993" height="1080" preserveAspectRatio="xMidYMid meet" version="1.0"><defs><g/></defs><g fill="#ffffff" fill-opacity="1"><g transform="translate(10.594009, 491.352817)"><g><path d="M 36.71875 -41.921875 C 36.71875 -35.328125 38.0625 -30.679688 40.75 -27.984375 C 43.4375 -25.296875 47.035156 -23.953125 51.546875 -23.953125 C 56.066406 -23.953125 59.671875 -25.296875 62.359375 -27.984375 C 65.046875 -30.679688 66.390625 -35.328125 66.390625 -41.921875 L 66.390625 -140.34375 C 66.390625 -146.9375 65.046875 -151.578125 62.359375 -154.265625 C 59.671875 -156.960938 56.066406 -158.3125 51.546875 -158.3125 C 47.035156 -158.3125 43.4375 -156.960938 40.75 -154.265625 C 38.0625 -151.578125 36.71875 -146.9375 36.71875 -140.34375 Z M 8.078125 -138.515625 C 8.078125 -153.273438 11.804688 -164.601562 19.265625 -172.5 C 26.734375 -180.394531 37.492188 -184.34375 51.546875 -184.34375 C 65.609375 -184.34375 76.367188 -180.394531 83.828125 -172.5 C 91.296875 -164.601562 95.03125 -153.273438 95.03125 -138.515625 L 95.03125 -43.75 C 95.03125 -28.988281 91.296875 -17.660156 83.828125 -9.765625 C 76.367188 -1.867188 65.609375 2.078125 51.546875 2.078125 C 37.492188 2.078125 26.734375 -1.867188 19.265625 -9.765625 C 11.804688 -17.660156 8.078125 -28.988281 8.078125 -43.75 Z M 8.078125 -138.515625 "/></g></g></g><g fill="#ffffff" fill-opacity="1"><g transform="translate(113.69404, 491.352817)"><g><path d="M 70.296875 0 C 69.953125 -1.21875 69.601562 -2.347656 69.25 -3.390625 C 68.90625 -4.429688 68.601562 -5.734375 68.34375 -7.296875 C 68.082031 -8.859375 67.910156 -10.851562 67.828125 -13.28125 C 67.742188 -15.707031 67.703125 -18.742188 67.703125 -22.390625 L 67.703125 -51.03125 C 67.703125 -59.539062 66.222656 -65.53125 63.265625 -69 C 60.316406 -72.46875 55.546875 -74.203125 48.953125 -74.203125 L 39.0625 -74.203125 L 39.0625 0 L 10.421875 0 L 10.421875 -182.265625 L 53.640625 -182.265625 C 68.566406 -182.265625 79.367188 -178.789062 86.046875 -171.84375 C 92.734375 -164.90625 96.078125 -154.40625 96.078125 -140.34375 L 96.078125 -126.015625 C 96.078125 -107.273438 89.828125 -94.953125 77.328125 -89.046875 C 84.617188 -86.097656 89.609375 -81.28125 92.296875 -74.59375 C 94.992188 -67.914062 96.34375 -59.800781 96.34375 -50.25 L 96.34375 -22.125 C 96.34375 -17.613281 96.515625 -13.664062 96.859375 -10.28125 C 97.203125 -6.894531 98.070312 -3.46875 99.46875 0 Z M 39.0625 -156.21875 L 39.0625 -100.25 L 50.25 -100.25 C 55.632812 -100.25 59.84375 -101.632812 62.875 -104.40625 C 65.914062 -107.1875 67.4375 -112.222656 67.4375 -119.515625 L 67.4375 -137.484375 C 67.4375 -144.078125 66.265625 -148.847656 63.921875 -151.796875 C 61.578125 -154.742188 57.890625 -156.21875 52.859375 -156.21875 Z M 39.0625 -156.21875 "/></g></g></g><g fill="#ffffff" fill-opacity="1"><g transform="translate(218.356198, 491.352817)"><g><path d="M 27.078125 25.78125 L 43.75 25.78125 L 43.75 28.375 C 43.75 30.289062 44.3125 31.550781 45.4375 32.15625 C 46.5625 32.757812 47.816406 33.0625 49.203125 33.0625 C 53.722656 33.0625 55.984375 30.804688 55.984375 26.296875 C 55.984375 21.429688 52.859375 19 46.609375 19 L 43.75 19 L 43.75 1.5625 C 31.769531 0.34375 22.828125 -4.125 16.921875 -11.84375 C 11.023438 -19.570312 8.078125 -30.207031 8.078125 -43.75 L 8.078125 -138.515625 C 8.078125 -153.273438 11.675781 -164.601562 18.875 -172.5 C 26.082031 -180.394531 36.710938 -184.34375 50.765625 -184.34375 C 64.828125 -184.34375 75.457031 -180.394531 82.65625 -172.5 C 89.863281 -164.601562 93.46875 -153.273438 93.46875 -138.515625 L 93.46875 -120.8125 L 66.390625 -120.8125 L 66.390625 -140.34375 C 66.390625 -146.9375 65.046875 -151.578125 62.359375 -154.265625 C 59.671875 -156.960938 56.066406 -158.3125 51.546875 -158.3125 C 47.035156 -158.3125 43.4375 -156.960938 40.75 -154.265625 C 38.0625 -151.578125 36.71875 -146.9375 36.71875 -140.34375 L 36.71875 -41.921875 C 36.71875 -35.328125 38.0625 -30.726562 40.75 -28.125 C 43.4375 -25.519531 47.035156 -24.21875 51.546875 -24.21875 C 56.066406 -24.21875 59.671875 -25.519531 62.359375 -28.125 C 65.046875 -30.726562 66.390625 -35.328125 66.390625 -41.921875 L 66.390625 -67.953125 L 93.46875 -67.953125 L 93.46875 -43.75 C 93.46875 -30.207031 90.382812 -19.484375 84.21875 -11.578125 C 78.0625 -3.679688 68.910156 0.785156 56.765625 1.828125 L 56.765625 10.15625 C 61.796875 10.15625 65.785156 11.5 68.734375 14.1875 C 71.691406 16.875 73.171875 20.476562 73.171875 25 C 73.171875 32.8125 70.828125 38.320312 66.140625 41.53125 C 61.453125 44.738281 55.894531 46.34375 49.46875 46.34375 C 43.570312 46.34375 38.363281 44.867188 33.84375 41.921875 C 29.332031 38.972656 27.078125 34.457031 27.078125 28.375 Z M 27.078125 25.78125 "/></g></g></g><g fill="#ffffff" fill-opacity="1"><g transform="translate(318.852707, 491.352817)"><g><path d="M 103.109375 0 L 74.203125 0 L 69.265625 -33.0625 L 34.109375 -33.0625 L 29.15625 0 L 2.859375 0 L 32.03125 -182.265625 L 73.953125 -182.265625 Z M 37.75 -57.796875 L 65.359375 -57.796875 L 51.546875 -149.96875 Z M 37.75 -57.796875 "/></g></g></g><g fill="#ffffff" fill-opacity="1"><g transform="translate(424.816644, 491.352817)"><g><path d="M 71.078125 -52.859375 L 90.609375 -182.265625 L 130.453125 -182.265625 L 130.453125 0 L 103.375 0 L 103.375 -130.703125 L 83.578125 0 L 56.5 0 L 35.15625 -128.890625 L 35.15625 0 L 10.15625 0 L 10.15625 -182.265625 L 49.984375 -182.265625 Z M 71.078125 -52.859375 "/></g></g></g><g fill="#ffffff" fill-opacity="1"><g transform="translate(565.667955, 491.352817)"><g><path d="M 39.0625 -105.453125 L 78.375 -105.453125 L 78.375 -79.421875 L 39.0625 -79.421875 L 39.0625 -26.03125 L 88.53125 -26.03125 L 88.53125 0 L 10.421875 0 L 10.421875 -182.265625 L 88.53125 -182.265625 L 88.53125 -156.21875 L 39.0625 -156.21875 Z M 39.0625 -105.453125 "/></g></g></g><g fill="#ffffff" fill-opacity="1"><g transform="translate(661.478101, 491.352817)"><g><path d="M 35.9375 -132.015625 L 35.9375 0 L 10.15625 0 L 10.15625 -182.265625 L 46.09375 -182.265625 L 75.515625 -73.171875 L 75.515625 -182.265625 L 101.03125 -182.265625 L 101.03125 0 L 71.609375 0 Z M 35.9375 -132.015625 "/></g></g></g><g fill="#ffffff" fill-opacity="1"><g transform="translate(772.649099, 491.352817)"><g><path d="M 2.609375 -182.265625 L 91.125 -182.265625 L 91.125 -156.21875 L 61.1875 -156.21875 L 61.1875 0 L 32.546875 0 L 32.546875 -156.21875 L 2.609375 -156.21875 Z M 2.609375 -182.265625 "/></g></g></g><g fill="#ffffff" fill-opacity="1"><g transform="translate(866.376382, 491.352817)"><g><path d="M 36.71875 -41.921875 C 36.71875 -35.328125 38.0625 -30.679688 40.75 -27.984375 C 43.4375 -25.296875 47.035156 -23.953125 51.546875 -23.953125 C 56.066406 -23.953125 59.671875 -25.296875 62.359375 -27.984375 C 65.046875 -30.679688 66.390625 -35.328125 66.390625 -41.921875 L 66.390625 -140.34375 C 66.390625 -146.9375 65.046875 -151.578125 62.359375 -154.265625 C 59.671875 -156.960938 56.066406 -158.3125 51.546875 -158.3125 C 47.035156 -158.3125 43.4375 -156.960938 40.75 -154.265625 C 38.0625 -151.578125 36.71875 -146.9375 36.71875 -140.34375 Z M 8.078125 -138.515625 C 8.078125 -153.273438 11.804688 -164.601562 19.265625 -172.5 C 26.734375 -180.394531 37.492188 -184.34375 51.546875 -184.34375 C 65.609375 -184.34375 76.367188 -180.394531 83.828125 -172.5 C 91.296875 -164.601562 95.03125 -153.273438 95.03125 -138.515625 L 95.03125 -43.75 C 95.03125 -28.988281 91.296875 -17.660156 83.828125 -9.765625 C 76.367188 -1.867188 65.609375 2.078125 51.546875 2.078125 C 37.492188 2.078125 26.734375 -1.867188 19.265625 -9.765625 C 11.804688 -17.660156 8.078125 -28.988281 8.078125 -43.75 Z M 8.078125 -138.515625 "/></g></g></g><g fill="#00c79b" fill-opacity="1"><g transform="translate(972.737309, 491.81288)"><g><path d="M 39.0625 -101.28125 L 76.03125 -101.28125 L 76.03125 -75.25 L 39.0625 -75.25 L 39.0625 0 L 10.421875 0 L 10.421875 -182.265625 L 86.1875 -182.265625 L 86.1875 -156.21875 L 39.0625 -156.21875 Z M 39.0625 -101.28125 "/></g></g></g><g fill="#00c79b" fill-opacity="1"><g transform="translate(1062.300531, 491.81288)"><g><path d="M 103.109375 0 L 74.203125 0 L 69.265625 -33.0625 L 34.109375 -33.0625 L 29.15625 0 L 2.859375 0 L 32.03125 -182.265625 L 73.953125 -182.265625 Z M 37.75 -57.796875 L 65.359375 -57.796875 L 51.546875 -149.96875 Z M 87.484375 -221.578125 L 59.359375 -191.109375 L 39.0625 -191.109375 L 57.796875 -221.578125 Z M 87.484375 -221.578125 "/></g></g></g><g fill="#00c79b" fill-opacity="1"><g transform="translate(1168.266334, 491.81288)"><g><path d="M 93.46875 -67.953125 L 93.46875 -43.75 C 93.46875 -28.988281 89.863281 -17.660156 82.65625 -9.765625 C 75.457031 -1.867188 64.828125 2.078125 50.765625 2.078125 C 36.710938 2.078125 26.082031 -1.867188 18.875 -9.765625 C 11.675781 -17.660156 8.078125 -28.988281 8.078125 -43.75 L 8.078125 -138.515625 C 8.078125 -153.273438 11.675781 -164.601562 18.875 -172.5 C 26.082031 -180.394531 36.710938 -184.34375 50.765625 -184.34375 C 64.828125 -184.34375 75.457031 -180.394531 82.65625 -172.5 C 89.863281 -164.601562 93.46875 -153.273438 93.46875 -138.515625 L 93.46875 -120.8125 L 66.390625 -120.8125 L 66.390625 -140.34375 C 66.390625 -146.9375 65.046875 -151.578125 62.359375 -154.265625 C 59.671875 -156.960938 56.066406 -158.3125 51.546875 -158.3125 C 47.035156 -158.3125 43.4375 -156.960938 40.75 -154.265625 C 38.0625 -151.578125 36.71875 -146.9375 36.71875 -140.34375 L 36.71875 -41.921875 C 36.71875 -35.328125 38.0625 -30.726562 40.75 -28.125 C 43.4375 -25.519531 47.035156 -24.21875 51.546875 -24.21875 C 56.066406 -24.21875 59.671875 -25.519531 62.359375 -28.125 C 65.046875 -30.726562 66.390625 -35.328125 66.390625 -41.921875 L 66.390625 -67.953125 Z M 93.46875 -67.953125 "/></g></g></g><g fill="#00c79b" fill-opacity="1"><g transform="translate(1268.764602, 491.81288)"><g><path d="M 10.421875 -182.265625 L 39.0625 -182.265625 L 39.0625 0 L 10.421875 0 Z M 10.421875 -182.265625 "/></g></g></g><g fill="#00c79b" fill-opacity="1"><g transform="translate(1318.23267, 491.81288)"><g><path d="M 10.421875 -182.265625 L 39.0625 -182.265625 L 39.0625 -26.03125 L 86.1875 -26.03125 L 86.1875 0 L 10.421875 0 Z M 10.421875 -182.265625 "/></g></g></g></svg>