<svg xmlns="http://www.w3.org/2000/svg" xmlns:xlink="http://www.w3.org/1999/xlink" width="1920" zoomAndPan="magnify" viewBox="0 0 1440 809.999993" height="1080" preserveAspectRatio="xMidYMid meet" version="1.0"><defs><g/></defs><g fill="#2b3c56" fill-opacity="1"><g transform="translate(12.136575, 491.165021)"><g><path d="M 36.625 -41.828125 C 36.625 -35.242188 37.96875 -30.609375 40.65625 -27.921875 C 43.34375 -25.242188 46.9375 -23.90625 51.4375 -23.90625 C 55.9375 -23.90625 59.53125 -25.242188 62.21875 -27.921875 C 64.90625 -30.609375 66.25 -35.242188 66.25 -41.828125 L 66.25 -140.03125 C 66.25 -146.613281 64.90625 -151.242188 62.21875 -153.921875 C 59.53125 -156.609375 55.9375 -157.953125 51.4375 -157.953125 C 46.9375 -157.953125 43.34375 -156.609375 40.65625 -153.921875 C 37.96875 -151.242188 36.625 -146.613281 36.625 -140.03125 Z M 8.046875 -138.21875 C 8.046875 -152.9375 11.769531 -164.234375 19.21875 -172.109375 C 26.664062 -179.992188 37.40625 -183.9375 51.4375 -183.9375 C 65.46875 -183.9375 76.207031 -179.992188 83.65625 -172.109375 C 91.101562 -164.234375 94.828125 -152.9375 94.828125 -138.21875 L 94.828125 -43.640625 C 94.828125 -28.921875 91.101562 -17.617188 83.65625 -9.734375 C 76.207031 -1.859375 65.46875 2.078125 51.4375 2.078125 C 37.40625 2.078125 26.664062 -1.859375 19.21875 -9.734375 C 11.769531 -17.617188 8.046875 -28.921875 8.046875 -43.640625 Z M 8.046875 -138.21875 "/></g></g></g><g fill="#2b3c56" fill-opacity="1"><g transform="translate(115.012423, 491.165021)"><g><path d="M 70.140625 0 C 69.796875 -1.207031 69.453125 -2.332031 69.109375 -3.375 C 68.765625 -4.414062 68.460938 -5.710938 68.203125 -7.265625 C 67.941406 -8.828125 67.765625 -10.820312 67.671875 -13.25 C 67.585938 -15.675781 67.546875 -18.707031 67.546875 -22.34375 L 67.546875 -50.921875 C 67.546875 -59.410156 66.070312 -65.382812 63.125 -68.84375 C 60.1875 -72.3125 55.425781 -74.046875 48.84375 -74.046875 L 38.96875 -74.046875 L 38.96875 0 L 10.390625 0 L 10.390625 -181.859375 L 53.515625 -181.859375 C 68.410156 -181.859375 79.191406 -178.394531 85.859375 -171.46875 C 92.523438 -164.539062 95.859375 -154.0625 95.859375 -140.03125 L 95.859375 -125.734375 C 95.859375 -107.035156 89.625 -94.738281 77.15625 -88.84375 C 84.4375 -85.90625 89.414062 -81.097656 92.09375 -74.421875 C 94.78125 -67.753906 96.125 -59.660156 96.125 -50.140625 L 96.125 -22.078125 C 96.125 -17.578125 96.296875 -13.640625 96.640625 -10.265625 C 96.984375 -6.890625 97.851562 -3.46875 99.25 0 Z M 38.96875 -155.875 L 38.96875 -100.015625 L 50.140625 -100.015625 C 55.503906 -100.015625 59.703125 -101.398438 62.734375 -104.171875 C 65.765625 -106.941406 67.28125 -111.96875 67.28125 -119.25 L 67.28125 -137.171875 C 67.28125 -143.753906 66.109375 -148.515625 63.765625 -151.453125 C 61.429688 -154.398438 57.753906 -155.875 52.734375 -155.875 Z M 38.96875 -155.875 "/></g></g></g><g fill="#2b3c56" fill-opacity="1"><g transform="translate(219.447003, 491.165021)"><g><path d="M 27.015625 25.71875 L 43.640625 25.71875 L 43.640625 28.3125 C 43.640625 30.21875 44.203125 31.472656 45.328125 32.078125 C 46.453125 32.691406 47.710938 33 49.109375 33 C 53.609375 33 55.859375 30.742188 55.859375 26.234375 C 55.859375 21.390625 52.738281 18.96875 46.5 18.96875 L 43.640625 18.96875 L 43.640625 1.5625 C 31.691406 0.34375 22.769531 -4.113281 16.875 -11.8125 C 10.988281 -19.519531 8.046875 -30.128906 8.046875 -43.640625 L 8.046875 -138.21875 C 8.046875 -152.9375 11.640625 -164.234375 18.828125 -172.109375 C 26.015625 -179.992188 36.625 -183.9375 50.65625 -183.9375 C 64.6875 -183.9375 75.296875 -179.992188 82.484375 -172.109375 C 89.671875 -164.234375 93.265625 -152.9375 93.265625 -138.21875 L 93.265625 -120.546875 L 66.25 -120.546875 L 66.25 -140.03125 C 66.25 -146.613281 64.90625 -151.242188 62.21875 -153.921875 C 59.53125 -156.609375 55.9375 -157.953125 51.4375 -157.953125 C 46.9375 -157.953125 43.34375 -156.609375 40.65625 -153.921875 C 37.96875 -151.242188 36.625 -146.613281 36.625 -140.03125 L 36.625 -41.828125 C 36.625 -35.242188 37.96875 -30.648438 40.65625 -28.046875 C 43.34375 -25.453125 46.9375 -24.15625 51.4375 -24.15625 C 55.9375 -24.15625 59.53125 -25.453125 62.21875 -28.046875 C 64.90625 -30.648438 66.25 -35.242188 66.25 -41.828125 L 66.25 -67.8125 L 93.265625 -67.8125 L 93.265625 -43.640625 C 93.265625 -30.128906 90.191406 -19.429688 84.046875 -11.546875 C 77.898438 -3.671875 68.765625 0.78125 56.640625 1.8125 L 56.640625 10.125 C 61.660156 10.125 65.640625 11.46875 68.578125 14.15625 C 71.523438 16.84375 73 20.4375 73 24.9375 C 73 32.726562 70.660156 38.226562 65.984375 41.4375 C 61.304688 44.644531 55.765625 46.25 49.359375 46.25 C 43.472656 46.25 38.273438 44.773438 33.765625 41.828125 C 29.265625 38.878906 27.015625 34.375 27.015625 28.3125 Z M 27.015625 25.71875 "/></g></g></g><g fill="#2b3c56" fill-opacity="1"><g transform="translate(319.724991, 491.165021)"><g><path d="M 102.875 0 L 74.046875 0 L 69.109375 -33 L 34.03125 -33 L 29.09375 0 L 2.859375 0 L 31.953125 -181.859375 L 73.78125 -181.859375 Z M 37.671875 -57.671875 L 65.203125 -57.671875 L 51.4375 -149.640625 Z M 37.671875 -57.671875 "/></g></g></g><g fill="#2b3c56" fill-opacity="1"><g transform="translate(425.458519, 491.165021)"><g><path d="M 70.921875 -52.734375 L 90.40625 -181.859375 L 130.15625 -181.859375 L 130.15625 0 L 103.140625 0 L 103.140625 -130.421875 L 83.390625 0 L 56.375 0 L 35.078125 -128.59375 L 35.078125 0 L 10.125 0 L 10.125 -181.859375 L 49.875 -181.859375 Z M 70.921875 -52.734375 "/></g></g></g><g fill="#2b3c56" fill-opacity="1"><g transform="translate(566.003561, 491.165021)"><g><path d="M 38.96875 -105.21875 L 78.203125 -105.21875 L 78.203125 -79.234375 L 38.96875 -79.234375 L 38.96875 -25.984375 L 88.328125 -25.984375 L 88.328125 0 L 10.390625 0 L 10.390625 -181.859375 L 88.328125 -181.859375 L 88.328125 -155.875 L 38.96875 -155.875 Z M 38.96875 -105.21875 "/></g></g></g><g fill="#2b3c56" fill-opacity="1"><g transform="translate(661.605376, 491.165021)"><g><path d="M 35.859375 -131.71875 L 35.859375 0 L 10.125 0 L 10.125 -181.859375 L 45.984375 -181.859375 L 75.34375 -73 L 75.34375 -181.859375 L 100.796875 -181.859375 L 100.796875 0 L 71.4375 0 Z M 35.859375 -131.71875 "/></g></g></g><g fill="#2b3c56" fill-opacity="1"><g transform="translate(772.534643, 491.165021)"><g><path d="M 2.59375 -181.859375 L 90.921875 -181.859375 L 90.921875 -155.875 L 61.046875 -155.875 L 61.046875 0 L 32.46875 0 L 32.46875 -155.875 L 2.59375 -155.875 Z M 2.59375 -181.859375 "/></g></g></g><g fill="#2b3c56" fill-opacity="1"><g transform="translate(866.058125, 491.165021)"><g><path d="M 36.625 -41.828125 C 36.625 -35.242188 37.96875 -30.609375 40.65625 -27.921875 C 43.34375 -25.242188 46.9375 -23.90625 51.4375 -23.90625 C 55.9375 -23.90625 59.53125 -25.242188 62.21875 -27.921875 C 64.90625 -30.609375 66.25 -35.242188 66.25 -41.828125 L 66.25 -140.03125 C 66.25 -146.613281 64.90625 -151.242188 62.21875 -153.921875 C 59.53125 -156.609375 55.9375 -157.953125 51.4375 -157.953125 C 46.9375 -157.953125 43.34375 -156.609375 40.65625 -153.921875 C 37.96875 -151.242188 36.625 -146.613281 36.625 -140.03125 Z M 8.046875 -138.21875 C 8.046875 -152.9375 11.769531 -164.234375 19.21875 -172.109375 C 26.664062 -179.992188 37.40625 -183.9375 51.4375 -183.9375 C 65.46875 -183.9375 76.207031 -179.992188 83.65625 -172.109375 C 91.101562 -164.234375 94.828125 -152.9375 94.828125 -138.21875 L 94.828125 -43.640625 C 94.828125 -28.921875 91.101562 -17.617188 83.65625 -9.734375 C 76.207031 -1.859375 65.46875 2.078125 51.4375 2.078125 C 37.40625 2.078125 26.664062 -1.859375 19.21875 -9.734375 C 11.769531 -17.617188 8.046875 -28.921875 8.046875 -43.640625 Z M 8.046875 -138.21875 "/></g></g></g><g fill="#007259" fill-opacity="1"><g transform="translate(972.187805, 491.6242)"><g><path d="M 38.96875 -101.0625 L 75.859375 -101.0625 L 75.859375 -75.078125 L 38.96875 -75.078125 L 38.96875 0 L 10.390625 0 L 10.390625 -181.859375 L 86 -181.859375 L 86 -155.875 L 38.96875 -155.875 Z M 38.96875 -101.0625 "/></g></g></g><g fill="#007259" fill-opacity="1"><g transform="translate(1061.55627, 491.6242)"><g><path d="M 102.875 0 L 74.046875 0 L 69.109375 -33 L 34.03125 -33 L 29.09375 0 L 2.859375 0 L 31.953125 -181.859375 L 73.78125 -181.859375 Z M 37.671875 -57.671875 L 65.203125 -57.671875 L 51.4375 -149.640625 Z M 87.296875 -221.09375 L 59.234375 -190.6875 L 38.96875 -190.6875 L 57.671875 -221.09375 Z M 87.296875 -221.09375 "/></g></g></g><g fill="#007259" fill-opacity="1"><g transform="translate(1167.291649, 491.6242)"><g><path d="M 93.265625 -67.8125 L 93.265625 -43.640625 C 93.265625 -28.921875 89.671875 -17.617188 82.484375 -9.734375 C 75.296875 -1.859375 64.6875 2.078125 50.65625 2.078125 C 36.625 2.078125 26.015625 -1.859375 18.828125 -9.734375 C 11.640625 -17.617188 8.046875 -28.921875 8.046875 -43.640625 L 8.046875 -138.21875 C 8.046875 -152.9375 11.640625 -164.234375 18.828125 -172.109375 C 26.015625 -179.992188 36.625 -183.9375 50.65625 -183.9375 C 64.6875 -183.9375 75.296875 -179.992188 82.484375 -172.109375 C 89.671875 -164.234375 93.265625 -152.9375 93.265625 -138.21875 L 93.265625 -120.546875 L 66.25 -120.546875 L 66.25 -140.03125 C 66.25 -146.613281 64.90625 -151.242188 62.21875 -153.921875 C 59.53125 -156.609375 55.9375 -157.953125 51.4375 -157.953125 C 46.9375 -157.953125 43.34375 -156.609375 40.65625 -153.921875 C 37.96875 -151.242188 36.625 -146.613281 36.625 -140.03125 L 36.625 -41.828125 C 36.625 -35.242188 37.96875 -30.648438 40.65625 -28.046875 C 43.34375 -25.453125 46.9375 -24.15625 51.4375 -24.15625 C 55.9375 -24.15625 59.53125 -25.453125 62.21875 -28.046875 C 64.90625 -30.648438 66.25 -35.242188 66.25 -41.828125 L 66.25 -67.8125 Z M 93.265625 -67.8125 "/></g></g></g><g fill="#007259" fill-opacity="1"><g transform="translate(1267.571381, 491.6242)"><g><path d="M 10.390625 -181.859375 L 38.96875 -181.859375 L 38.96875 0 L 10.390625 0 Z M 10.390625 -181.859375 "/></g></g></g><g fill="#007259" fill-opacity="1"><g transform="translate(1316.931881, 491.6242)"><g><path d="M 10.390625 -181.859375 L 38.96875 -181.859375 L 38.96875 -25.984375 L 86 -25.984375 L 86 0 L 10.390625 0 Z M 10.390625 -181.859375 "/></g></g></g></svg>